<svg id="Calque_1" data-name="Calque 1" xmlns="http://www.w3.org/2000/svg" viewBox="0 0 234 289"><defs><style>.cls-1{fill:#0f7;}</style></defs><title>bundes_liga</title><path class="cls-1" d="M210,4a20,20,0,0,1,20,20V265a20,20,0,0,1-20,20H24A20,20,0,0,1,4,265V24A20,20,0,0,1,24,4H210m0-4H24A24,24,0,0,0,0,24V265a24,24,0,0,0,24,24H210a24,24,0,0,0,24-24V24A24,24,0,0,0,210,0Z"/><path class="cls-1" d="M216.3,114.22v27.62a12.41,12.41,0,0,1-12.41,12.41H30.14a12.41,12.41,0,0,1-12.41-12.41h0V30.14A12.41,12.41,0,0,1,30.14,17.73H203.9a12.41,12.41,0,0,1,12.41,12.41h0V56.72A12.38,12.38,0,1,0,216,74.23c.11-.1.21-.21.31-.31Zm-149.3,0,2.4,7c-4.17-2.13-17.6,3.87-22.4,5.47a23.77,23.77,0,0,0-4.28-3.18,4.4,4.4,0,0,0-3.84.75c-.28-.18-.64-.66-1.25.23-.4.58-.2.7.2,1-.18.3-.5.86-.68,1.22-.34-.1-.6-.47-1.07.42s0,1,.44,1.2c-1.35,2.74-3.58,4.4-4.93,7.24-.43-.17-.74-.37-1.17.75-.3.8,0,.93.47,1.17a21.58,21.58,0,0,0-.52,2.25.69.69,0,0,0-.87.42l0,.16c-.15,1.12,0,1.28.68,1.36v1.6c.38,1.65,1.85,2,2.7,1.32,4.6-3.5,8.14-5.8,10.74-7.68,6.83-.64,25.52-1.9,31-2.38,2.7.18,10.8-6.8,10.87-9.2a91.54,91.54,0,0,0-.25-11.11l-.78-10.8,1.27-.4.1-9.73,2.57.13a5.25,5.25,0,0,1,.29-1.1c6.62.72,19.08,2.7,27.38,2.1a4.92,4.92,0,0,1,4,1.62c2.13,1.8,17.6,3.42,30.5,3.5a7.93,7.93,0,0,0,5.09,5.14c.28.17.5,0,1.23-.35.4.44.64.67,1.4.27.6-.32.6-.6.4-1.1l.6-.4c.4.4.74.62,1.32.25s.64-.53.22-1.16c1.3-.86,8.88-6.53,8.88-6.53.27.28.44.43.6.4a2.8,2.8,0,0,0,1.1-.86c.1-.2-.12-.47-.36-.76l1.3-1c.23.3.42.46.58.4a1.47,1.47,0,0,0,.79-.74c.1-.18-.14-.48-.33-.74l.85-1c-.33-1.5-1.82-1.34-3.13-1.25-3.25.25-12.54,1.64-16.1,1.48-6.64-2.2-31.86-11.64-33.35-12.2a11.53,11.53,0,0,0-4.76-.72C110.07,75,97.21,72.24,96,71.92c-.34-.1-.2-.65-.3-1.07a65.11,65.11,0,0,0-10.14-1,110.41,110.41,0,0,0,2.08-16.21,4.39,4.39,0,0,0,2.09.77c1.6.17,3.26-1,5.28-1.8,1-.43,1.2.2,1.8-.18,1.34-.84,2-3.28,4-4.76,1.26-1,2.57-.7,3.1-1.86.9-1.93.46-3.3.1-5.35-.57-3.1-1.24-5.22-3.7-7.18a8.78,8.78,0,0,0-6-2.14c-2.93,0-7.84,1.4-10.52,8.17a37.74,37.74,0,0,0-7.36-3.74c-5.8-2.08-24.13,2-26.18,2.9a12.16,12.16,0,0,1,.16,1.8s-2.24.08-3.12,1.35c-4.3,6.25-9.25,15-9.25,15A5.55,5.55,0,0,0,34.3,60c-.87,1.84-1.68,2.07-3.5,3.25-1.26.42-.8,1.8-.08,1.76a7.47,7.47,0,0,0,3.85-1.85c-.73,2.23-3.34,3.8-3.42,4.7.27,1.2,3.08,2.88,6.74.1a13.71,13.71,0,0,0,3.22-2.81c.46-.56.7-3,1.22-4.72.82-.38,7-6,11.45-10.5L67.25,47.4S63.87,49,60.5,50.17c-5.63,20.92-5.2,30.14-2.24,31.1-2.3,4.14,3,21.1,5.8,28.23l1.37.24,1.58,4.5"/><path class="cls-1" d="M17.73,198.52H35.58c7.13,0,11-1.1,11-9.36,0-4.22-.85-7.22-5.83-7.53v-.37c4.44-.7,5.3-3.5,5.3-7.75,0-7.35-4-8.6-10.63-8.6H17.72Zm9-26.26h7.53c2.5.08,2.83.84,2.83,2.86,0,2.7-.76,3.23-3.9,3.23h-6.5Zm0,12.33h7c2.9,0,3.94.4,3.94,3.18s-1.2,3.4-4.12,3.4H26.7v-6.58m44.24-19.7v21.84c0,3.94-1.3,4.25-5.1,4.25s-5.93,0-5.93-3.85V164.9h-9v22.42c0,8.07,1.43,11.48,14.9,11.48,9.86,0,14.08-2.52,14.08-11.48V164.9h-9m23,7.8h.36l9.5,25.8H119V164.9h-9l.54,25.83h-.37l-9.63-25.83H85.4v33.62h9l-.54-25.8m30.22,25.8H142.3c9.37,0,12.33-4.34,12.33-13.53v-7c0-9.55-4.17-13-13.54-13h-17Zm9-25.8h7.84c3.14,0,4.54.9,4.54,5.24v7c0,3.54-1.22,5.74-4.54,5.74H133v-18"/><path class="cls-1" d="M168.3,172.26h15.3V164.9H159.34v33.62h24.57v-7.35h-15.6v-6.54h14.35V178.4H168.3v-6.14m32.9,5.54c-2.38-.17-3.68-.27-3.68-3,0-1.88.4-2.87,5.24-2.87,3.6,0,5,0,5,3.46h8.6V174c0-9.3-6.27-9.42-13.63-9.42-8.78,0-14.2.63-14.2,10.27s4.84,9.6,13.14,10.18l2,.13c4.22.27,4.7.22,4.7,3.14s-1.4,3.1-5.6,3.1c-4.4,0-5.64-.36-5.64-3.85h-8.6c0,11,5.7,11.2,14.25,11.2,14.8,0,14.57-5.47,14.57-11,0-7.7-2.46-9-12.4-9.7l-3.72-.27m-166,27.92H17.73v65.57h42.4v-15.2H35.23V205.7m32.6,0h17.5v65.58H67.83Z"/><path class="cls-1" d="M153.42,226.5c0-20.8-12.07-20.9-29-20.9-19.23,0-31.13,3.23-31.13,24.9v17c0,21.25,10.5,24.74,31.13,24.74,23.43,0,29-4,29-26.14V234.6H123.6v12.16h12.07c0,9.1-2.36,11.1-11.28,11.1-9.1,0-13.1-1.22-13.1-12.85V234.34c.17-10.57.52-14.42,13.1-14.42,5.25,0,10.93-.1,11.28,6.55h17.75M199.64,260l3.4,11.28h17.84L201,205.7H174.37L154.7,271.27h18.2L176.13,260Zm-3.5-12.77H179.88l8-28.4H188l8.13,28.4"/></svg>