<svg id="Calque_1" data-name="Calque 1" xmlns="http://www.w3.org/2000/svg" viewBox="0 0 830 1167.99"><defs><style>.cls-1{fill:#0f7;}</style></defs><title>la_liga</title><path class="cls-1" d="M372.22,0H375c1.54,1.34,3,2.9,3.14,5.06Q393.35,87,408.62,168.92c.89,2.75-.69,6-3.69,6.39a192.82,192.82,0,0,0-59,20.69,190.32,190.32,0,0,0-73.79,72.25c-1.09,1.92-2.54,4.13-5.05,4.05-3.34-.66-6.07-2.85-9-4.44q-69.25-40.25-138.54-80.43c-2-1.07-3.91-3-3.34-5.44,1.14-3.47,3.43-6.4,5.19-9.55A369.71,369.71,0,0,1,273,33,376.86,376.86,0,0,1,372.22,0Z"/><path class="cls-1" d="M465.17,41.29a371,371,0,0,1,249.35,88.05,39,39,0,0,1,4.92,4.52,5.31,5.31,0,0,1-1.16,6.44q-54.57,62.92-109.12,125.86c-1.13,1.21-2.41,2.62-4.21,2.57-2.29.15-3.87-1.76-5.5-3-41.23-35.91-98.5-52.5-152.54-44.13-2.05.2-4.42,1-6.2-.44-1.48-.86-1.9-2.64-2.12-4.21Q426.91,138,415.24,59.1c-.4-3-1.07-6-1.2-9.1a4.56,4.56,0,0,1,4.1-4.44A365.13,365.13,0,0,1,465.17,41.29Z"/><path class="cls-1" d="M54.4,186.35c1.88-1.13,4.05-.5,5.82.51Q134,226.51,207.91,266.07c3.13,1.43,3.1,5.49,1.22,7.95-26.46,48.13-30.35,108-10.3,159.08.67,2.15,2.17,4.5.94,6.73s-4,2.73-6.13,3.71q-76.69,29.41-153.33,59c-2.15,1-5,.82-6.39-1.35-1.69-3.26-2.73-6.82-4.07-10.24C2.63,416.7.49,333.68,23.47,258.07a372.23,372.23,0,0,1,28.32-68.35A8.81,8.81,0,0,1,54.4,186.35Z"/><path class="cls-1" d="M707.41,195.54c1.91-1.17,4.27-.29,5.74,1.18a368.31,368.31,0,0,1,95.72,146.5A375.21,375.21,0,0,1,830,457.54v19.85c-.25,3.47-.19,7-.87,10.42-.87,2.53-3.76,3.14-6.12,2.9-55.7-2.76-111.42-5.34-167.12-8.15-3.43.11-5.26-3.47-4.63-6.51,3.22-54.64-18.81-110.13-58.62-147.68-1.58-1.6-3.57-3.07-4.22-5.32-.38-2.11,1.1-3.81,2.41-5.25q55.29-58.18,110.54-116.42C703.33,199.39,705.08,197.12,707.41,195.54Z"/><path class="cls-1" d="M389.65,284.84c39.91-5.35,81.81,7.73,111.48,35a139.29,139.29,0,0,1-77.06,241.55c-39.05,4.86-79.86-7.86-109.13-34.18a139,139,0,0,1-23.76-181c21.94-33.39,58.79-56.48,98.47-61.34M301,351.66c4.94-3.78,10.57-6.48,16.17-9.12C310.71,356,307.5,371.14,309,386c12.13,5.66,24.49,10.87,36.47,16.84-13.1-2.36-26.1-5.25-39.16-7.8a82.52,82.52,0,0,0-19.45,40.46,97.68,97.68,0,0,1-7.6-16.37A127.89,127.89,0,0,0,306,501.31a107.22,107.22,0,0,1-3.28-17.13,84,84,0,0,0,38.84,21.21c9.36-9.78,18.18-20.08,27.66-29.74-6.31,11.86-13.19,23.43-19.73,35.17,7.6,13.11,19.17,23.66,32.44,30.85a111.24,111.24,0,0,1-17.35,2.1,128.88,128.88,0,0,0,85.76,0,115.91,115.91,0,0,1-17.22-2.13c13.27-7.19,24.84-17.74,32.44-30.84-6.56-11.75-13.4-23.35-19.77-35.21,9.46,9.66,18.34,19.88,27.58,29.75,14.66-3.24,28.11-10.92,39-21.18a112.88,112.88,0,0,1-3.28,17,127.54,127.54,0,0,0,26.64-82.05c-1.79,5.72-4.63,11-7.5,16.25-2.9-14.8-9.28-29.09-19.49-40.31-13.05,2.56-26.05,5.45-39.15,7.8,12-5.94,24.32-11.18,36.45-16.82,1.55-14.91-1.69-30.07-8.09-43.54,5.56,2.66,11.18,5.31,16.1,9.09A128.87,128.87,0,0,0,442.7,299.8c5.19,3.49,9.36,8.17,13.85,12.47l-.12.9-1-.78a80.77,80.77,0,0,0-43.15,5.84c-1.63,13.17-2.93,26.38-4.64,39.54-2.09-13.1-3.05-26.37-4.83-39.52a83.5,83.5,0,0,0-44.19-5.88c4.28-4.5,8.59-9,13.74-12.58A128.85,128.85,0,0,0,301,351.66Z"/><path class="cls-1" d="M407.52,363.77c18.81,13.58,37.54,27.28,56.37,40.84-7,22.12-14.39,44.13-21.44,66.24-23.24.15-46.48,0-69.72.07Q362,437.79,351.19,404.66q28.17-20.43,56.33-40.89Z"/><path class="cls-1" d="M449.39,900.56a28,28,0,0,1,21.89,4.18,27,27,0,0,1,11.53,25.33A27.85,27.85,0,0,1,462,953.92a26.89,26.89,0,0,1-26.94-8.06,28.13,28.13,0,0,1-2.87-32.71,27.27,27.27,0,0,1,17.16-12.59Z"/><path class="cls-1" d="M2.75,928.38H51.38v144.43h58.8v42.55H2.8q-.1-93.49,0-187Z"/><path class="cls-1" d="M305.06,928.36h48.63V1072.8c19.6.06,39.21-.12,58.82.09v42.42H305.06V928.36Z"/><path class="cls-1" d="M150,976a68.08,68.08,0,0,1,42-13.42,53.69,53.69,0,0,1,25.83,6.5,86.06,86.06,0,0,1,15.75,11.68V965.51H278.4v149.81H232.89v-14.45A64.22,64.22,0,0,1,187,1119c-15.68-.13-31.61-5.08-43.62-15.37-11.82-9.9-19.32-24.19-22.66-39.09a99.54,99.54,0,0,1-1.16-38.45c3.53-19.67,14.31-38.19,30.47-50.1m40.55,29.61a33.39,33.39,0,0,0-18.86,11.95c-9,11.62-9.57,28.28-3.55,41.39a32.37,32.37,0,0,0,22.34,18.42c15.07,3.33,32.21-3.46,39.79-17.16,8.8-15.49,5.36-37.49-9-48.46-8.56-6.66-20.23-8.56-30.68-6.14Z"/><path class="cls-1" d="M531.68,970.67c13.93-8.23,31.12-10,46.74-6.32,11.24,2.59,20.88,9.59,28.7,17.86V965.49h43.31v114.43c-.17,10.31.59,20.7-1,30.93-2.29,15.22-10,29.7-21.87,39.55-13.6,11.46-31.45,16.7-49,17.59H569.4c-15-.77-30.07-4.41-42.84-12.48-14.07-8.57-24.22-23.36-26.41-39.77h50.79c2.19,3.13,4.45,6.36,7.69,8.51,5.35,3.65,12.16,3.78,18.41,3.64,9.12-.45,19.13-3.45,24.55-11.32,4.74-6.83,3.53-15.55,3.43-23.37-9.11,7.65-19.89,13.49-31.56,16a61.44,61.44,0,0,1-38.79-5c-16.09-7.73-27.79-22.86-33.19-39.66a90.32,90.32,0,0,1,1.08-57.79c5.35-14.81,15.4-28.2,29.12-36.17m31.79,32c-9.85,2.71-17.21,11.23-20.08,20.83-4,13.1-2.44,28.75,6.85,39.3,9,10.27,24.84,11.84,36.94,6.59a33.17,33.17,0,0,0,16.68-16.53c4.72-10,4.38-21.9.38-32.06a29.82,29.82,0,0,0-17.1-17,39.22,39.22,0,0,0-23.67-1Z"/><path class="cls-1" d="M702.44,975.41a68,68,0,0,1,55-11.11c10.68,2.59,19.78,9.2,27.8,16.47V965.49H830v149.82H784.5V1100.9a64.26,64.26,0,0,1-18.32,12.44c-17.58,8-38.47,7.25-56.07-.26-16.16-6.91-28.54-21.13-34.5-37.52a97.45,97.45,0,0,1-4.23-50.62c3.75-19.57,14.77-37.88,31-49.53m39.12,30.35a33.3,33.3,0,0,0-16.73,10c-10.11,11.22-11.32,28.38-5.59,42,3.55,8.62,10.69,15.84,19.63,18.75,14.92,4.88,32.88-.83,41.64-14,10.34-15.29,7.56-38.43-7-50.15-8.79-7.22-21.11-9.25-32-6.52Z"/><path class="cls-1" d="M432.62,965.5h45.26v149.81H432.63V965.5Z"/><path class="cls-1" d="M157.35,481.31c3.18-1.86,6.69.45,7.53,3.72,21.57,51.16,66.79,91.57,120,107.37,3.21.48,5.72,3.61,4.36,6.83q-24.87,80-49.89,160a5,5,0,0,1-7.18,3.57A369.85,369.85,0,0,1,0,553.31V551a8.52,8.52,0,0,1,4.37-3.65q76.5-33,153-66.05Z"/><path class="cls-1" d="M601.31,502.38a13,13,0,0,1,3.78-.13q83,6.57,166,13a4.84,4.84,0,0,1,5,4.67A4.42,4.42,0,0,1,776,521c-5,72.36-32.33,142.87-76.92,200a368.79,368.79,0,0,1-74.72,72.27,4.88,4.88,0,0,1-6.87-.67,5.44,5.44,0,0,1-.39-.55q-47.68-64.9-95.33-129.85c-1.78-2.69-4.39-5-5.17-8.22-.46-2.93,2.31-4.56,4.3-6,44-32,72.77-83.65,76.91-137.83.17-2.82.09-6.75,3.44-7.73Z"/><path class="cls-1" d="M463.45,622.56c2.5-1.22,5.13.59,6.31,2.78Q516.34,694.79,563,764.17c2.65,3.29-.23,7.17-3.46,8.55C489,820.24,401.72,842,317.14,833.41a370.43,370.43,0,0,1-63.76-12,4.78,4.78,0,0,1-3.59-5.73A4.11,4.11,0,0,1,250,815q22.23-80.84,44.61-161.62a5.1,5.1,0,0,1,7.33-3.55,191.11,191.11,0,0,0,126.2-8c12.46-5.11,24.07-12,35.32-19.34Z"/></svg>