<svg xmlns="http://www.w3.org/2000/svg" width="44" height="64" viewBox="0 0 44 64">
    <path fill="#37003C" fill-rule="evenodd" d="M4.633 52.19l.055-.013-.319-.797-.041.007c-.21.049-.425.076-.64.085a1.943 1.943 0 0 1-2.191-2.113 2.062 2.062 0 0 1 2.026-2.394 3.74 3.74 0 0 1 1.654.35l.054.028v-.996l-.016-.004a5.83 5.83 0 0 0-1.892-.237 3.537 3.537 0 0 0-2.534 1 3.108 3.108 0 0 0-.782 2.28 2.944 2.944 0 0 0 .868 2.12 3.563 3.563 0 0 0 2.61.819c.386-.01.77-.058 1.148-.135zm23.856-1.413c.155-.241.534-.337 1.304-.337 0 0 .195.006.263.006v.103c.027.229-.005.463-.094.677a.516.516 0 0 1-.238.22c-.187.095-.396.139-.604.126a.857.857 0 0 1-.592-.213.474.474 0 0 1-.039-.582zm-.427 1.42c.542.177 1.119.226 1.685.144.264-.03 1.136-.182 1.328-.85.071-.625.097-1.255.077-1.884v-.086a1.159 1.159 0 0 0-.722-1.243 2.632 2.632 0 0 0-1.11-.197 5.678 5.678 0 0 0-1.596.227l-.042.013.118.807.062-.023c.4-.176.832-.269 1.268-.278.66 0 .926.238.926.817l-.006.098a4.997 4.997 0 0 0-2.002.18 1.157 1.157 0 0 0-.816 1.086c.015.527.34.993.83 1.189zm14.83-1.648c.027.229-.005.463-.094.677a.516.516 0 0 1-.238.22c-.187.095-.396.139-.604.126a.853.853 0 0 1-.592-.213.474.474 0 0 1-.04-.582c.157-.241.538-.337 1.303-.337 0 0 .197.006.265.006v.103zm.372-2.271a2.632 2.632 0 0 0-1.11-.197 5.73 5.73 0 0 0-1.595.227l-.041.013.118.807.06-.023a3.353 3.353 0 0 1 1.268-.278c.66 0 .928.238.928.817 0 0-.003.057-.007.098a4.978 4.978 0 0 0-1.997.18 1.155 1.155 0 0 0-.822 1.086c.014.527.34.993.83 1.189.544.176 1.12.226 1.687.144.264-.03 1.136-.182 1.328-.85.071-.625.097-1.255.077-1.884v-.086a1.161 1.161 0 0 0-.724-1.243zm-7.359.34a1.605 1.605 0 0 0-1.272-.527h-.685a1.574 1.574 0 0 0-1.672 1.752l-.002.249c0 1.075 0 1.329-.049 2.087l-.003.055h1.233l-.008-.317-.025-.868-.021-.852v-.1a1.58 1.58 0 0 1 .127-.803.91.91 0 0 1 1.508 0c.112.252.155.53.125.804v.1l-.016.851-.032.868-.01.317h1.212l-.012-.282-.01-.739v-.682l.01-.759c.009-.144.045-.283.106-.414a.845.845 0 0 1 .212-.287.813.813 0 0 1 .547-.194.759.759 0 0 1 .746.509c.059.29.078.585.055.88 0 .649-.009 1.09-.057 1.707l-.02.205-.003.056h1.247l-.015-.236-.013-.791.003-.225v-.287l.02-.86a1.527 1.527 0 0 0-.617-1.454 2.021 2.021 0 0 0-1.13-.3 2.036 2.036 0 0 0-1.479.536zm-22.518 2.43l-.03.868-.01.318h1.213l-.016-.284c.004.01-.006-.736-.006-.736v-.685l.01-.685a1.573 1.573 0 0 0-1.67-1.754h-.69a1.572 1.572 0 0 0-1.668 1.752l-.003.248c0 1.077 0 1.332-.05 2.09l-.005.054h1.242l-.014-.318-.028-.868-.019-.85v-.1a1.56 1.56 0 0 1 .128-.803.907.907 0 0 1 1.506 0c.113.25.157.53.128.803v.1l-.018.85zM20.8 48.8c.66 0 1.07.527 1.07 1.373 0 .863-.424 1.423-1.08 1.423-.675 0-1.112-.54-1.112-1.373 0-.877.427-1.423 1.122-1.423zm-.393 3.556c.108.006.218.004.326-.008a2.109 2.109 0 0 0 2.326-2.168 2.048 2.048 0 0 0-2.278-2.132 2.11 2.11 0 0 0-2.29 1.913c-.007.079-.01.158-.007.237a2.044 2.044 0 0 0 1.923 2.158zM17.64 46.92a2.37 2.37 0 0 1 .803.105l.053.015.114-.796-.039-.015a4.903 4.903 0 0 0-1.09-.143 1.591 1.591 0 0 0-1.711 1.724l-.004.755.011 1.453-.021 1.792-.019 1.083v.248h1.203v-.253l-.029-1.052-.01-1.157v-.934s.01-.672.01-.856h1.176l.118-.801H16.92v-.275c.025-.592.268-.893.72-.893zm7.545 3.143v-.216c.018-.432.167-.948.768-.948.199.002.394.035.58.102l.061.036.126-.813-.044-.01a3.563 3.563 0 0 0-.886-.126c-1.24 0-1.74.51-1.74 1.759v.097c0 .756-.023 1.587-.05 2.023l-.012.267h1.241l-.022-.245a18.721 18.721 0 0 1-.029-1.107v-.21l.007-.609zm-16.683.11c0 .864-.425 1.424-1.078 1.424-.676 0-1.117-.54-1.117-1.373 0-.877.431-1.423 1.128-1.423.654 0 1.067.527 1.067 1.373zM7.415 48.05a2.105 2.105 0 0 0-2.286 1.907c-.006.081-.009.162-.006.243a2.039 2.039 0 0 0 2.244 2.15 2.11 2.11 0 0 0 2.317-1.88c.01-.096.013-.192.01-.288a2.05 2.05 0 0 0-2.28-2.132zm32.046-4.073h1.53v-5.83h-2.369v1.25h.839v4.58zm-6.66-1.295H30.91v-.975h1.751v-1.29h-1.75v-.945h1.857v-1.324h-3.384v5.83H32.8V42.68zm-6.245-.805v-3.73h-1.541v3.656a.934.934 0 0 1-1.04.971.945.945 0 0 1-1.052-1.05v-3.576H21.4v3.896c0 1.43 1.257 2.1 2.543 2.1 1.702 0 2.613-.935 2.613-2.267zm-10.028 2.292a2.825 2.825 0 0 0 2.407-3.192v-.318H16.01v1.218h1.338a1.299 1.299 0 0 1-1.296 1.035c-1.13 0-1.586-.792-1.586-1.78 0-1.06.451-1.87 1.45-1.87.59-.015 1.14.294 1.432.805l1.223-.669a2.839 2.839 0 0 0-2.638-1.462l-.096.001a3.04 3.04 0 0 0-2.941 3.136c-.003.063-.004.127-.003.19a2.989 2.989 0 0 0 3.052 2.926c.195.013.39.006.582-.02zm-7.671-.193h1.524v-5.828H8.857v5.828zm-2.46-1.322h-1.85v-4.506H3.024v5.83h3.373v-1.324zm17.716 18.438a.617.617 0 0 0-.619.619v.005c.002.34.277.613.619.612h.002a.62.62 0 0 0 .618-.62.62.62 0 0 0-.62-.616zm-1.807-1.875a7.75 7.75 0 0 0 .492-.974c.202-.402.28-.854.227-1.301-.012-.04-.066-.059-.099-.064-.17-.044-.157.433-.751 1.06a.556.556 0 0 0 .11-.321.569.569 0 0 0-.574-.568.57.57 0 1 0 0 1.14h.004a.573.573 0 0 0 .217-.045c-.129.118-.247.247-.397.34-1.026-.963-2.052-1.634-2.192-1.525-.112.092.043.178.213.387.543.566.906 1.28 1.045 2.05-.049.75-.3 1.474-.724 2.096a.105.105 0 0 0 .065.116c.122.03.251-.069.405-.205.12-.106.254-.22.396-.365.421-.445.84-.977.84-.977s-.004-.048.456.532c.173.225.325.466.455.719.415.764.334 1.151.465 1.151a.137.137 0 0 0 .103-.07c.166-.397.207-.836.12-1.258a5.075 5.075 0 0 0-.876-1.918zm3.788.302a4.078 4.078 0 0 1-4.078 4.073 4.077 4.077 0 0 1-4.085-4.068 4.076 4.076 0 0 1 4.077-4.074 4.076 4.076 0 0 1 4.086 4.067v.002zm-.741-2.999c-.007-.005-.01-.013-.017-.017l-.01-.014-.01-.007a4.468 4.468 0 0 0-2.248-1.316c-.05-.013-.094-.026-.144-.037l-.016-.004a4.68 4.68 0 0 0-.66-.08c-.077-.005-.152-.005-.232-.005-.08 0-.16 0-.24.005l-.077.007c-.055.003-.1.006-.155.011-.032.005-.06.008-.093.011-.049.005-.094.015-.135.022-.04.003-.072.01-.1.016a2.125 2.125 0 0 0-.233.046 3.5 3.5 0 0 1-.122.03c-.032.012-.067.02-.102.03l-.113.034c-.035.01-.07.024-.101.031-.036.018-.075.03-.111.043-.035.012-.071.028-.1.038-.039.014-.072.031-.112.049a2.012 2.012 0 0 0-.097.043c-.035.016-.074.032-.106.05-.029.016-.065.03-.096.047-.036.019-.065.036-.1.057a.634.634 0 0 0-.097.056c-.032.016-.06.036-.097.06-.031.016-.06.036-.092.055a.623.623 0 0 1-.094.064 1.492 1.492 0 0 1-.083.064.816.816 0 0 0-.094.068c-.032.024-.057.046-.087.07a.957.957 0 0 0-.085.072.569.569 0 0 0-.082.072c-.032.025-.059.05-.086.076-.024.027-.05.046-.075.072-.029.028-.057.06-.083.088l-.061.06-.003.005c-.068.073-.126.145-.188.222-.633.678-2.891 2.677-7.63 2.677H3.023v.293h7.865s5.216-.092 7.788 2.829c.007.01.014.017.022.026 0 .005.007.009.01.012l.006.007a4.479 4.479 0 0 0 2.1 1.278.252.252 0 0 0 .058.017.95.95 0 0 0 .094.025c.05.01.093.024.142.031l.015.005c.22.045.44.07.663.08a3.636 3.636 0 0 0 .543-.006l.158-.01.094-.012c.048-.007.097-.01.138-.02.036-.006.067-.01.1-.018.04-.007.083-.012.128-.024.034-.004.067-.016.097-.021a2.278 2.278 0 0 0 .22-.06c.043-.011.083-.02.128-.035.027-.012.065-.018.096-.034.037-.014.077-.025.12-.04.027-.014.06-.025.092-.039.039-.015.077-.027.113-.046.029-.015.06-.027.094-.044.033-.02.073-.035.11-.053.03-.013.06-.028.088-.044.037-.02.076-.038.11-.061.028-.017.062-.031.087-.05a3.062 3.062 0 0 0 .19-.12c.035-.02.068-.044.1-.065.028-.018.055-.04.08-.058a2.751 2.751 0 0 0 .177-.139c.029-.025.063-.052.1-.078.02-.024.046-.042.07-.061.03-.031.062-.061.098-.092.021-.022.042-.04.06-.062.036-.033.07-.071.103-.1a.583.583 0 0 1 .047-.05v-.004c.065-.072.133-.146.191-.222.634-.678 2.891-2.678 7.627-2.678h7.865v-.294h-7.865s-5.227.093-7.791-2.834zm2.329-26.155c-.125-.796-1.66-1.214-3.417-.934-1.762.28-3.088 1.156-2.956 1.952.126.798 1.653 1.213 3.42.932 1.763-.28 3.086-1.156 2.953-1.95zm-11.614-.167c.258 1.013 1.197 1.743 3.066 2.124a6.639 6.639 0 0 1-.798-2.43 23.478 23.478 0 0 1 5.625-2.807c2 .188 3.987.507 5.946.956.12.855.095 1.723-.07 2.571 1.576-1.038 2.13-1.994 1.84-3.181-.373-1.528-3.914-2.847-8.035-2.22-4.508.687-8.15 2.752-7.574 4.987zm19.547-5.056c.627.037 2.106-3.286 2.557-6.404a13.37 13.37 0 0 0-.659-7.06c-.368-.126-1.123 2.915-1.647 6.635-.52 3.716-.637 6.805-.25 6.829zM17.423 3.712c4.019-1.376 7.154-2.827 7.01-3.241a6.442 6.442 0 0 0-3.5-.38c.374.055.737.177 1.071.359l-4.252 1.907-5.086 1.329a1.112 1.112 0 0 1-.638-.35C10.71 4.342 9.87 5.244 9.893 5.46c.048.433 3.516-.368 7.53-1.748zM16.429.99a17.287 17.287 0 0 0-3.095 1.464A17.161 17.161 0 0 0 19.17.29c-.933.15-1.85.384-2.741.698zm15.68 3.932a41.808 41.808 0 0 0 4.016 3.44 14.36 14.36 0 0 0-3.415-4.225 15.697 15.697 0 0 0-3.169-2.184 6.302 6.302 0 0 0-1.402-.628c-.024.097 1.782 1.633 3.97 3.597zm-15.467 9.483a9.066 9.066 0 0 0 7.685 8.097s-.074-.866-.18-1.728c-.097-.856-.216-1.702-.216-1.702l-1.028.108a18.674 18.674 0 0 1-2.112-2.44 16.025 16.025 0 0 1-1.469-2.643s.438-1.55 1.013-2.98c.592-1.45 1.319-2.78 1.319-2.78a27.97 27.97 0 0 1 2.814-.491c1.529-.174 3.108-.187 3.108-.187.709.719 1.364 1.49 1.955 2.309a23.332 23.332 0 0 1 1.633 2.777c-.155.976-.415 1.931-.777 2.85a19.053 19.053 0 0 1-1.562 2.91l-.928.15s.126.816.186 1.653c.07.88.11 1.75.11 1.75a9.054 9.054 0 0 0 5.646-9.621c-.423-4.893-4.74-8.52-9.644-8.106-4.873.705-8.252 5.213-7.553 10.074zm11.784-1.374a2.991 2.991 0 0 0-3.293-2.653 2.96 2.96 0 0 0-2.613 3.225 2.965 2.965 0 0 0 3.239 2.66 2.962 2.962 0 0 0 2.667-3.232zM7.772 21.712c.904-.108 1.463-1.625 1.252-3.394-.212-1.767-1.12-3.11-2.024-3.001-.904.11-1.467 1.626-1.25 3.392.212 1.768 1.115 3.115 2.022 3.003zm3.93-4.284a28.65 28.65 0 0 1-.693 6.417 7.369 7.369 0 0 1-3.52.196c1.004 2.172 2.303 2.743 3.707 2.588 2.299-.257 3.28-4.839 2.846-9.024-.47-4.525-3.153-8.377-5.452-8.12-1.2.133-2.091 1.62-2.66 3.432a12.077 12.077 0 0 1 2.766-1.026 18.782 18.782 0 0 1 3.007 5.537z" opacity=".3"/>
</svg>
