<svg xmlns="http://www.w3.org/2000/svg" width="42" height="64" viewBox="0 0 42 64">
    <path fill="#0F7" fill-rule="evenodd" d="M13.872 7.157a17.614 17.614 0 0 1 8.466-2.143c1.602 0 3.158.212 4.632.607.137-1.363.448-3.059 1.097-4.288-1.499 1.11-2.392 2.314-2.51 2.466-.034-.31-.172-2.363-.272-3.799-.605.631-2.938 3.127-3.346 3.538A473.63 473.63 0 0 1 19.65.006s-1.08 3.016-1.392 3.939c-.766-.504-3.092-2.055-4.094-2.724.194 1.277.533 3.332.624 3.76-.2-.147-1.306-1.102-3.026-1.86.943 1.082 1.655 2.72 2.109 4.036zm15.83 20.193c.066-1.275-.283-2.355-.283-2.355-.527.59-1.836 1.154-2.58 1.31-.377-.696-1.122-2.028-1.122-2.028 1.352-.043 3.57-1.874 3.57-1.874l1.645-.039c.72.818.89 1.694.89 1.694-.36 1.762-1.38 2.88-2.12 3.292zm-4.888-4.716c-.944-1.696-1.805-3.268-1.805-3.268s2.551-2.037 4.658-2.343c1.049.782 2.032 1.085 2.032 1.085l.003 2.115c-.787.62-3.23 2.633-4.888 2.41zm7.683-5.526c.764 1.737.924 3.851.093 5.289-.439-.96-1.024-1.487-1.617-2.123l-.01-2.123s.704-.374 1.534-1.043zm1.47 10.482l1.354 1.442c2.091-5.956.465-10.694-2.517-14.788l-.13.966-1.295-1.347s.24-.114.481-.392c.015-.11-.081-.776-.619-1.21-.522.127-.906.413-1.11.694-.715-.616-1.514-.853-1.514-.853.142.105.983 1.23 1.077 1.552.77.614 1.767 1.333 2.457 2.195-.545-.608-3.2-.756-4.422-.114 0 0-1.199-1.355-2.304-2.3-.23-.827.531-1.51.531-1.51s-.767-.02-1.502.667c-1.107-.786-2.504-1.164-2.504-1.164-1.549.23-2.61 1.277-2.61 1.277.378.227.86.5 1.272.655.862.323 1.648.223 2.176.22.422-.003 1.021.117 1.021.117s1.044.748 2.553 2.423c-2.295-.886-4.734.127-6.43-.689-1.978-.952-1.841-2.472-1.841-2.472s-1.346-.184-1.357-.207c0 0 .986-1.253 2.505-1.702l-.768-.628c.881-.735 2.502-1.669 5.022-2.016 0 0 1.127.401 3.422 1.993.397-.513.491-1.581.491-1.581 1.153.399 3.567 2.068 4.528 3.101-.507-1.17-.89-1.91-1.012-3.141-.593-.56-2.008-1.72-4.974-2.414.457.956.42 1.747.42 1.747-.546-.671-1.715-1.75-2.51-2.057a17.775 17.775 0 0 0-1.521-.065c-2.739 0-5.327.635-7.607 1.762h.002c1.207.066 2.013 1.04 2.288 1.815-.924-.694-2.371-1.002-3.231-.106-.86.888-.761 2.602.062 3.99-1.939-.944-1.93-3.423-1.268-4.428l-.003.002a16.268 16.268 0 0 0-5.213 5.948h.001l1.777.274c-2.017 2.215-3.41 6.159-3.41 8.017l2.844-.846c-.51 1.628-.663 7.16 1.046 9.918 0 0 2.238-1.475 4.767-5.239 1.08 3.374.577 6.191.01 8.972 4.567 2.483 9.884 1.088 12.982-1.063l.558 2.103c3.65-2.309 5.637-5.62 6.024-9.518zM16.97 59.41c-.95 0-1.663-.726-1.663-1.639 0-.96.712-1.662 1.663-1.662.928 0 1.64.702 1.64 1.662a1.62 1.62 0 0 1-1.64 1.64zm1.617-3.957c-.38-.585-1.022-.913-1.973-.913-1.687 0-3.161 1.475-3.161 3.231 0 1.78 1.474 3.301 3.161 3.301.88 0 1.592-.398 1.973-.96l.19.796h1.545v-6.275h-1.545l-.19.82zm5.895 3.957c-.927 0-1.664-.726-1.664-1.639 0-.96.737-1.662 1.664-1.662.927 0 1.663.702 1.663 1.662a1.64 1.64 0 0 1-1.663 1.64zm1.568-3.98c-.38-.539-1.045-.89-1.782-.89-1.807 0-3.28 1.404-3.28 3.231 0 1.85 1.426 3.301 3.232 3.301.69 0 1.308-.21 1.83-.749v.445c0 .936-.57 1.57-1.878 1.57-.831 0-1.473-.4-1.948-.844l-.975 1.334c.76.726 1.711 1.171 3.043 1.171.974 0 1.782-.327 2.376-.772.785-.609 1.117-1.428 1.117-2.6v-5.993H26.24l-.19.796zm-3.969-8.523v3.7h1.759V46.93c0-.702.357-1.124 1.046-1.124.594 0 .974.422.974 1.101h.001v3.7h1.76v-4.004c0-1.428-.928-2.435-2.283-2.435-.475 0-1.236.07-1.854.937l-.047.07-.048-.07c-.428-.633-1.046-.937-1.783-.937-1.188 0-1.569.983-1.569.983l-.19-.82h-1.545v6.275h1.759v-3.676c0-.702.356-1.124 1.046-1.124.594 0 .974.422.974 1.101zm6.418 3.7h1.758v-6.276H28.5v6.275zm.903-7.118c.618 0 1.093-.469 1.093-1.054 0-.61-.475-1.077-1.093-1.077s-1.094.468-1.094 1.077c0 .585.476 1.054 1.094 1.054zm7.915 13.603c.142-.679.76-1.1 1.497-1.1.713 0 1.307.445 1.45 1.1h-2.947zm4.683.655c0-2.13-1.593-3.278-3.138-3.278-2.068 0-3.375 1.57-3.375 3.326 0 1.943 1.449 3.277 3.422 3.277 1.07 0 2.068-.421 2.757-1.194l-1.069-1.077a2.261 2.261 0 0 1-1.712.726c-.784 0-1.426-.469-1.592-1.17h4.659c.048-.235.048-.446.048-.61zm-8.89.117c0 1.007-.571 1.546-1.355 1.546-.855 0-1.355-.469-1.355-1.546v-3.23h-1.758v3.348c0 2.341 1.71 3.09 3.113 3.09 1.379 0 3.114-.749 3.114-3.09v-3.349H33.11v3.231zM12.93 46.791c.142-.679.76-1.1 1.497-1.1.714 0 1.308.445 1.45 1.1H12.93zm4.683.656c0-2.131-1.593-3.278-3.138-3.278-2.068 0-3.375 1.569-3.375 3.325 0 1.943 1.45 3.277 3.422 3.277 1.07 0 2.069-.421 2.758-1.194L16.21 48.5a2.259 2.259 0 0 1-1.711.727c-.784 0-1.426-.47-1.592-1.172h4.658c.048-.234.048-.445.048-.608zM1.877 42.834h1.094c.951 0 1.64.491 1.64 1.429 0 .936-.689 1.451-1.64 1.451H1.877v-2.88zm0 4.66h1.189c2.02 0 3.494-1.195 3.494-3.231 0-2.014-1.498-3.185-3.494-3.185H0v9.53h1.877v-3.114zm38.031-.048c0-1.006.594-1.522 1.45-1.522.214 0 .403.024.618.07v-1.662a1.837 1.837 0 0 0-.5-.07c-.76 0-1.33.398-1.616.984l-.19-.914h-1.521v6.275h1.76v-3.16zm-38.03 4.168H0v9.295h5.966v-1.756H1.877v-7.539zm33.846-4.823h-2.947c.143-.679.76-1.1 1.497-1.1.713 0 1.308.445 1.45 1.1zm-4.777.703c0 1.943 1.45 3.277 3.423 3.277 1.069 0 2.067-.421 2.757-1.194l-1.07-1.077a2.26 2.26 0 0 1-1.711.727c-.784 0-1.426-.47-1.593-1.172h4.66c.047-.234.047-.445.047-.608 0-2.131-1.593-3.278-3.138-3.278-2.068 0-3.375 1.569-3.375 3.325zm-22.771 9.6c.143-.68.76-1.101 1.497-1.101.714 0 1.308.445 1.45 1.1H8.176zM9.72 54.47c-2.067 0-3.374 1.57-3.374 3.326 0 1.943 1.45 3.277 3.423 3.277 1.07 0 2.067-.421 2.756-1.194l-1.069-1.077a2.263 2.263 0 0 1-1.711.726c-.784 0-1.426-.469-1.593-1.17h4.66c.046-.235.046-.446.046-.61 0-2.13-1.592-3.278-3.138-3.278zm-.807-7.024c0-1.006.594-1.522 1.45-1.522.215 0 .403.024.618.07v-1.662a1.834 1.834 0 0 0-.499-.07c-.761 0-1.331.398-1.616.984l-.19-.914H7.153v6.275h1.76v-3.16z"/>
</svg>
