<svg id="Calque_1" data-name="Calque 1" xmlns="http://www.w3.org/2000/svg" viewBox="0 0 178.44 261.6"><defs><style>.cls-1{fill:#0f7;}</style></defs><title>serie_a</title><polygon class="cls-1" points="2.64 160.4 89.61 214.63 55.35 160.4 2.64 160.4"/><polygon class="cls-1" points="123.12 160.4 89.61 214.63 175.84 160.4 123.12 160.4"/><path class="cls-1" d="M203.74,160.71h0L134.83.31H99.06L30.54,160.71h52.7L117.13,67,133,110.63H117.13l-9,27.11h34.64l8.28,23Z" transform="translate(-27.9 -0.31)"/><path class="cls-1" d="M41.38,261.9a21.84,21.84,0,0,1-7.55-1.34,16.13,16.13,0,0,1-5.72-3.37.6.6,0,0,1-.05-.86l3.85-4.4c.2-.27.45-.29.75-.05a14.4,14.4,0,0,0,9,3.55,6.73,6.73,0,0,0,4.13-1.12,3.52,3.52,0,0,0,1.49-3,3,3,0,0,0-1.19-2.54A9.08,9.08,0,0,0,42,247.48l-1.83-.25q-10.87-1.51-10.88-10.33a9.62,9.62,0,0,1,3.31-7.64q3.31-2.89,8.89-2.89a18.56,18.56,0,0,1,11.7,3.6.45.45,0,0,1,.1.75l-3.09,4.61a.47.47,0,0,1-.7.14,14.68,14.68,0,0,0-8-2.63,5.07,5.07,0,0,0-3.42,1,3.43,3.43,0,0,0-1.19,2.71,3,3,0,0,0,1.25,2.46,9.23,9.23,0,0,0,4.12,1.34l1.83.25q10.83,1.47,10.83,10.43a9.79,9.79,0,0,1-3.52,7.85q-3.52,3-10,3Z" transform="translate(-27.9 -0.31)"/><path class="cls-1" d="M60,260.83V227.41a.44.44,0,0,1,.51-.5H82.59a.44.44,0,0,1,.51.5v5.42a.45.45,0,0,1-.51.51H67.76a.27.27,0,0,0-.3.3v6.84a.27.27,0,0,0,.3.3H80.11a.45.45,0,0,1,.51.51v5.37a.44.44,0,0,1-.51.5H67.76a.27.27,0,0,0-.3.31v7.14a.27.27,0,0,0,.3.3H82.6a.45.45,0,0,1,.51.51v5.41a.45.45,0,0,1-.51.51H60.52a.45.45,0,0,1-.51-.51Z" transform="translate(-27.9 -0.31)"/><path class="cls-1" d="M115.67,261.34h-7.2a.74.74,0,0,1-.75-.51l-5.92-12.61H97.19c-.2,0-.3.1-.3.31v12.3a.45.45,0,0,1-.51.51H90a.45.45,0,0,1-.51-.51V227.41a.44.44,0,0,1,.51-.5h13.73a12,12,0,0,1,8.48,3,10,10,0,0,1,3.21,7.72,10.43,10.43,0,0,1-1.62,5.8,10,10,0,0,1-4.5,3.77L116,260.73a.49.49,0,0,1,0,.41A.41.41,0,0,1,115.67,261.34Zm-12.41-19.45a4.78,4.78,0,0,0,3.39-1.16,4.47,4.47,0,0,0,0-6.22,4.8,4.8,0,0,0-3.39-1.16H97.18a.27.27,0,0,0-.3.3v7.95a.27.27,0,0,0,.3.3h6.08Z" transform="translate(-27.9 -0.31)"/><path class="cls-1" d="M121.32,260.83V227.41a.44.44,0,0,1,.5-.5h6.43a.44.44,0,0,1,.51.5v33.42a.45.45,0,0,1-.51.51h-6.43A.44.44,0,0,1,121.32,260.83Z" transform="translate(-27.9 -0.31)"/><path class="cls-1" d="M136.14,260.83V227.41a.44.44,0,0,1,.5-.5h22.07a.44.44,0,0,1,.51.5v5.42a.45.45,0,0,1-.51.51H143.87a.27.27,0,0,0-.3.3v6.84a.27.27,0,0,0,.3.3h12.36a.44.44,0,0,1,.5.51v5.37a.44.44,0,0,1-.5.5H143.87a.27.27,0,0,0-.3.31v7.14a.27.27,0,0,0,.3.3h14.84a.45.45,0,0,1,.51.51v5.41a.45.45,0,0,1-.51.51H136.64a.45.45,0,0,1-.5-.51Z" transform="translate(-27.9 -0.31)"/><path class="cls-1" d="M175.12,260.83,187,227.41a.62.62,0,0,1,.65-.5H194a.63.63,0,0,1,.66.5l11.64,33.42c.1.34,0,.51-.35.51h-6.59a.63.63,0,0,1-.65-.51l-2-6H184.69l-1.93,6a.63.63,0,0,1-.65.51h-6.63c-.35,0-.46-.17-.36-.51Zm11.64-12.35h8l-3.89-12h-.16Z" transform="translate(-27.9 -0.31)"/></svg>