<svg xmlns="http://www.w3.org/2000/svg" width="1140" height="509" viewBox="0 0 1140 509">
    <path fill="#0F7" fill-rule="evenodd" d="M147.433 508.217c174.74-96.975 376.85-152.191 592.012-152.191 112.03 0 220.796 15.059 323.867 43.113 9.606-96.79 31.31-217.2 76.688-304.474-104.764 78.744-167.229 164.294-175.418 175.072C962.15 247.811 952.514 101.994 945.495 0 903.226 44.807 740.03 222.066 711.523 251.198 688.156 216.184 551.528.431 551.528.431s-75.548 214.12-97.344 279.684c-53.537-35.784-216.21-145.94-286.278-193.426 13.607 90.662 37.312 236.632 43.685 266.935-14.069-10.347-91.31-78.22-211.591-131.99 65.943 76.804 115.693 193.088 147.433 286.583"/>
</svg>
